<svg width="358" height="243" viewBox="0 0 358 243" fill="none" xmlns="http://www.w3.org/2000/svg">
<path d="M309.535 37.8699L322.07 35.7808L309.535 33.6918C304.007 35.4212 303.932 36.3598 309.535 37.8699Z" fill="#E5DAC8" stroke="#E5DAC8"/>
<path d="M326.944 51.104L324.855 38.5698L322.766 51.104C324.496 56.6322 325.434 56.7077 326.944 51.104Z" fill="#E5DAC8" stroke="#E5DAC8"/>
<path d="M322.766 20.4612L324.855 32.9954L326.944 20.4612C325.215 14.9331 324.276 14.8576 322.766 20.4612Z" fill="#E5DAC8" stroke="#E5DAC8"/>
<path d="M340.875 33.6918L328.341 35.7808L340.875 37.8698C346.403 36.1404 346.478 35.2018 340.875 33.6918Z" fill="#E5DAC8" stroke="#E5DAC8"/>
<circle cx="324.507" cy="35.4327" r="30.791" transform="rotate(180 324.507 35.4327)" stroke="#E5DAC8"/>
<path d="M262.88 4.09718C262.88 21.211 276.754 35.0845 293.868 35.0845C310.981 35.0845 324.855 21.211 324.855 4.09718" stroke="#E5DAC8"/>
<path d="M325.551 5.48981C325.551 22.2191 339.113 35.7808 355.842 35.7808" stroke="#E5DAC8"/>
<path d="M356.19 36.4772C339.269 36.4772 325.551 50.1948 325.551 67.1164C325.551 84.0379 339.269 97.7556 356.19 97.7556" stroke="#E5DAC8"/>
<circle cx="293.519" cy="67.1164" r="31.8355" transform="rotate(180 293.519 67.1164)" stroke="#E5DAC8"/>
<circle cx="325.203" cy="4.09703" r="10.597" transform="rotate(180 325.203 4.09703)" stroke="#E5DAC8"/>
<circle cx="325.203" cy="67.4646" r="10.597" transform="rotate(180 325.203 67.4646)" stroke="#E5DAC8"/>
<circle cx="355.842" cy="36.1291" r="10.597" transform="rotate(180 355.842 36.1291)" stroke="#E5DAC8"/>
<ellipse cx="320.896" cy="31.8222" rx="1.81579" ry="3.78253" transform="rotate(135 320.896 31.8222)" fill="#E5DAC8"/>
<ellipse cx="320.897" cy="39.4821" rx="1.81579" ry="3.78253" transform="rotate(-135 320.897 39.4821)" fill="#E5DAC8"/>
<ellipse cx="329.253" cy="31.8222" rx="1.81579" ry="3.78253" transform="rotate(-135 329.253 31.8222)" fill="#E5DAC8"/>
<ellipse cx="328.556" cy="39.482" rx="1.81579" ry="3.78253" transform="rotate(135 328.556 39.482)" fill="#E5DAC8"/>
<path d="M246.783 100.552L259.387 98.4518L246.783 96.3511C241.224 98.0902 241.148 99.034 246.783 100.552Z" fill="#E5DAC8" stroke="#E5DAC8"/>
<path d="M248.706 162.873L260.788 161.123L248.706 159.372C243.377 160.821 243.305 161.608 248.706 162.873Z" fill="#E5DAC8" stroke="#E5DAC8"/>
<path d="M311.027 225.194L323.108 223.444L311.027 221.693C305.698 223.142 305.625 223.929 311.027 225.194Z" fill="#E5DAC8" stroke="#E5DAC8"/>
<path d="M264.289 113.861L262.188 101.256L260.087 113.861C261.826 119.42 262.77 119.496 264.289 113.861Z" fill="#E5DAC8" stroke="#E5DAC8"/>
<path d="M264.989 175.655L263.238 163.574L261.488 175.655C262.937 180.984 263.723 181.057 264.989 175.655Z" fill="#E5DAC8" stroke="#E5DAC8"/>
<path d="M327.31 237.976L325.559 225.895L323.809 237.976C325.258 243.305 326.045 243.378 327.31 237.976Z" fill="#E5DAC8" stroke="#E5DAC8"/>
<path d="M260.087 83.0465L262.188 95.6508L264.289 83.0465C262.55 77.4875 261.606 77.4116 260.087 83.0465Z" fill="#E5DAC8" stroke="#E5DAC8"/>
<path d="M261.488 146.59L263.238 158.672L264.989 146.59C263.54 141.262 262.753 141.189 261.488 146.59Z" fill="#E5DAC8" stroke="#E5DAC8"/>
<path d="M323.809 208.911L325.559 220.993L327.31 208.911C325.861 203.583 325.074 203.51 323.809 208.911Z" fill="#E5DAC8" stroke="#E5DAC8"/>
<path d="M278.297 96.3511L265.693 98.4518L278.297 100.552C283.856 98.8134 283.932 97.8696 278.297 96.3511Z" fill="#E5DAC8" stroke="#E5DAC8"/>
<path d="M278.471 159.372L266.389 161.123L278.471 162.873C283.799 161.424 283.872 160.638 278.471 159.372Z" fill="#E5DAC8" stroke="#E5DAC8"/>
<path d="M340.792 221.693L328.711 223.444L340.792 225.194C346.121 223.745 346.193 222.959 340.792 221.693Z" fill="#E5DAC8" stroke="#E5DAC8"/>
<circle cx="261.838" cy="98.1017" r="30.9602" transform="rotate(180 261.838 98.1017)" stroke="#E5DAC8"/>
<circle cx="293.698" cy="129.962" r="31.3104" transform="rotate(180 293.698 129.962)" stroke="#E5DAC8"/>
<circle cx="324.509" cy="160.773" r="31.3104" transform="rotate(180 324.509 160.773)" stroke="#E5DAC8"/>
<circle cx="262.888" cy="161.473" r="31.3104" transform="rotate(180 262.888 161.473)" stroke="#E5DAC8"/>
<circle cx="324.509" cy="99.152" r="30.6101" transform="rotate(180 324.509 99.152)" stroke="#E5DAC8"/>
<path d="M356.02 99.152C338.617 99.152 324.509 113.26 324.509 130.663C324.509 148.065 338.617 162.173 356.02 162.173" stroke="#E5DAC8"/>
<path d="M356.02 161.473C339.003 161.473 325.209 175.267 325.209 192.283C325.209 209.299 339.003 223.094 356.02 223.094" stroke="#E5DAC8"/>
<path d="M262.888 191.933C262.888 174.917 276.682 161.123 293.698 161.123C310.715 161.123 324.509 171.976 324.509 191.933C324.509 211.89 314.355 223.794 293.698 223.794" stroke="#E5DAC8"/>
<path d="M293.699 223.444C293.699 206.428 307.493 192.633 324.509 192.633C341.525 192.633 355.319 203.487 355.319 223.444" stroke="#E5DAC8"/>
<circle cx="230.677" cy="129.962" r="32.0106" transform="rotate(180 230.677 129.962)" stroke="#E5DAC8"/>
<circle cx="261.838" cy="131.013" r="10.6534" transform="rotate(180 261.838 131.013)" stroke="#E5DAC8"/>
<circle cx="262.538" cy="193.334" r="10.6534" transform="rotate(180 262.538 193.334)" stroke="#E5DAC8"/>
<circle cx="325.559" cy="193.334" r="10.6534" transform="rotate(180 325.559 193.334)" stroke="#E5DAC8"/>
<circle cx="294.749" cy="98.8019" r="10.6534" transform="rotate(180 294.749 98.8019)" stroke="#E5DAC8"/>
<circle cx="354.969" cy="100.903" r="10.6534" transform="rotate(180 354.969 100.903)" stroke="#E5DAC8"/>
<circle cx="325.559" cy="131.013" r="10.6534" transform="rotate(180 325.559 131.013)" stroke="#E5DAC8"/>
<ellipse cx="258.207" cy="94.471" rx="1.82593" ry="3.80367" transform="rotate(135 258.207 94.471)" fill="#E5DAC8"/>
<ellipse cx="259.483" cy="157.331" rx="1.72999" ry="3.6038" transform="rotate(135 259.483 157.331)" fill="#E5DAC8"/>
<ellipse cx="321.812" cy="219.647" rx="1.72939" ry="3.60256" transform="rotate(135 321.812 219.647)" fill="#E5DAC8"/>
<ellipse cx="258.208" cy="102.174" rx="1.82593" ry="3.80367" transform="rotate(-135 258.208 102.174)" fill="#E5DAC8"/>
<ellipse cx="259.484" cy="164.629" rx="1.72999" ry="3.6038" transform="rotate(-135 259.484 164.629)" fill="#E5DAC8"/>
<ellipse cx="321.812" cy="226.942" rx="1.72939" ry="3.60256" transform="rotate(-135 321.812 226.942)" fill="#E5DAC8"/>
<ellipse cx="266.61" cy="94.4711" rx="1.82593" ry="3.80367" transform="rotate(-135 266.61 94.4711)" fill="#E5DAC8"/>
<ellipse cx="267.445" cy="157.331" rx="1.72999" ry="3.6038" transform="rotate(-135 267.445 157.331)" fill="#E5DAC8"/>
<ellipse cx="329.771" cy="219.647" rx="1.72939" ry="3.60256" transform="rotate(-135 329.771 219.647)" fill="#E5DAC8"/>
<ellipse cx="265.91" cy="102.174" rx="1.82593" ry="3.80367" transform="rotate(135 265.91 102.174)" fill="#E5DAC8"/>
<ellipse cx="266.781" cy="164.629" rx="1.72999" ry="3.6038" transform="rotate(135 266.781 164.629)" fill="#E5DAC8"/>
<ellipse cx="329.108" cy="226.942" rx="1.72939" ry="3.60256" transform="rotate(135 329.108 226.942)" fill="#E5DAC8"/>
<path d="M246.083 38.2316L258.687 36.1309L246.083 34.0302C240.524 35.7693 240.448 36.7131 246.083 38.2316Z" fill="#E5DAC8" stroke="#E5DAC8"/>
<path d="M263.588 51.5398L261.488 38.9355L259.387 51.5398C261.126 57.0988 262.07 57.1747 263.588 51.5398Z" fill="#E5DAC8" stroke="#E5DAC8"/>
<path d="M259.387 20.7257L261.488 33.33L263.589 20.7257C261.85 15.1667 260.906 15.0908 259.387 20.7257Z" fill="#E5DAC8" stroke="#E5DAC8"/>
<path d="M277.597 34.0302L264.993 36.1309L277.597 38.2316C283.156 36.4925 283.232 35.5487 277.597 34.0302Z" fill="#E5DAC8" stroke="#E5DAC8"/>
<circle cx="261.138" cy="35.7809" r="30.9602" transform="rotate(180 261.138 35.7809)" stroke="#E5DAC8"/>
<path d="M199.167 4.27025C199.167 21.4797 213.118 35.4307 230.327 35.4307C247.537 35.4307 261.488 21.4797 261.488 4.27025" stroke="#E5DAC8"/>
<circle cx="230.327" cy="67.2914" r="31.6605" transform="rotate(180 230.327 67.2914)" stroke="#E5DAC8"/>
<circle cx="261.838" cy="4.27023" r="10.6534" transform="rotate(180 261.838 4.27023)" stroke="#E5DAC8"/>
<circle cx="261.838" cy="67.9917" r="10.6534" transform="rotate(180 261.838 67.9917)" stroke="#E5DAC8"/>
<circle cx="292.648" cy="36.481" r="10.6534" transform="rotate(180 292.648 36.481)" stroke="#E5DAC8"/>
<ellipse cx="257.507" cy="32.1502" rx="1.82593" ry="3.80367" transform="rotate(135 257.507 32.1502)" fill="#E5DAC8"/>
<ellipse cx="257.507" cy="39.8528" rx="1.82593" ry="3.80367" transform="rotate(-135 257.507 39.8528)" fill="#E5DAC8"/>
<ellipse cx="265.91" cy="32.1502" rx="1.82593" ry="3.80367" transform="rotate(-135 265.91 32.1502)" fill="#E5DAC8"/>
<ellipse cx="265.21" cy="39.8528" rx="1.82593" ry="3.80367" transform="rotate(135 265.21 39.8528)" fill="#E5DAC8"/>
<path d="M183.762 100.552L196.366 98.4517L183.762 96.351C178.203 98.0901 178.127 99.0339 183.762 100.552Z" fill="#E5DAC8" stroke="#E5DAC8"/>
<path d="M201.268 113.861L199.167 101.256L197.066 113.861C198.805 119.42 199.749 119.495 201.268 113.861Z" fill="#E5DAC8" stroke="#E5DAC8"/>
<path d="M197.066 83.0465L199.167 95.6507L201.268 83.0465C199.529 77.4875 198.585 77.4115 197.066 83.0465Z" fill="#E5DAC8" stroke="#E5DAC8"/>
<path d="M215.276 96.351L202.672 98.4517L215.276 100.552C220.835 98.8133 220.911 97.8695 215.276 96.351Z" fill="#E5DAC8" stroke="#E5DAC8"/>
<circle cx="198.817" cy="98.1016" r="30.9602" transform="rotate(180 198.817 98.1016)" stroke="#E5DAC8"/>
<circle cx="168.357" cy="129.262" r="31.3104" transform="rotate(180 168.357 129.262)" stroke="#E5DAC8"/>
<circle cx="199.517" cy="131.013" r="10.6534" transform="rotate(180 199.517 131.013)" stroke="#E5DAC8"/>
<circle cx="230.328" cy="162.523" r="10.6534" transform="rotate(180 230.328 162.523)" stroke="#E5DAC8"/>
<circle cx="294.049" cy="162.523" r="10.6534" transform="rotate(180 294.049 162.523)" stroke="#E5DAC8"/>
<circle cx="230.328" cy="98.8018" r="10.6534" transform="rotate(180 230.328 98.8018)" stroke="#E5DAC8"/>
<ellipse cx="195.186" cy="94.4709" rx="1.82593" ry="3.80367" transform="rotate(135 195.186 94.4709)" fill="#E5DAC8"/>
<ellipse cx="195.186" cy="102.174" rx="1.82593" ry="3.80367" transform="rotate(-135 195.186 102.174)" fill="#E5DAC8"/>
<ellipse cx="203.589" cy="94.471" rx="1.82593" ry="3.80367" transform="rotate(-135 203.589 94.471)" fill="#E5DAC8"/>
<ellipse cx="202.889" cy="102.174" rx="1.82593" ry="3.80367" transform="rotate(135 202.889 102.174)" fill="#E5DAC8"/>
<path d="M183.761 38.2314L196.365 36.1307L183.761 34.03C178.202 35.7691 178.126 36.7129 183.761 38.2314Z" fill="#E5DAC8" stroke="#E5DAC8"/>
<path d="M201.267 51.5395L199.166 38.9353L197.066 51.5395C198.805 57.0985 199.749 57.1745 201.267 51.5395Z" fill="#E5DAC8" stroke="#E5DAC8"/>
<path d="M197.066 20.7255L199.167 33.3297L201.267 20.7255C199.528 15.1665 198.584 15.0905 197.066 20.7255Z" fill="#E5DAC8" stroke="#E5DAC8"/>
<path d="M215.275 34.03L202.671 36.1307L215.275 38.2314C220.834 36.4923 220.91 35.5485 215.275 34.03Z" fill="#E5DAC8" stroke="#E5DAC8"/>
<circle cx="198.817" cy="35.7806" r="30.9602" transform="rotate(180 198.817 35.7806)" stroke="#E5DAC8"/>
<path d="M136.145 5.67046C136.145 22.8799 150.096 36.8309 167.306 36.8309C184.515 36.8309 198.466 22.8799 198.466 5.67046" stroke="#E5DAC8"/>
<circle cx="168.356" cy="67.6413" r="32.0106" transform="rotate(180 168.356 67.6413)" stroke="#E5DAC8"/>
<circle cx="199.517" cy="4.26999" r="10.6534" transform="rotate(180 199.517 4.26999)" stroke="#E5DAC8"/>
<circle cx="199.517" cy="67.9914" r="10.6534" transform="rotate(180 199.517 67.9914)" stroke="#E5DAC8"/>
<circle cx="230.327" cy="36.4808" r="10.6534" transform="rotate(180 230.327 36.4808)" stroke="#E5DAC8"/>
<ellipse cx="195.186" cy="32.1499" rx="1.82593" ry="3.80367" transform="rotate(135 195.186 32.1499)" fill="#E5DAC8"/>
<ellipse cx="195.186" cy="39.8525" rx="1.82593" ry="3.80367" transform="rotate(-135 195.186 39.8525)" fill="#E5DAC8"/>
<ellipse cx="203.589" cy="32.1499" rx="1.82593" ry="3.80367" transform="rotate(-135 203.589 32.1499)" fill="#E5DAC8"/>
<ellipse cx="202.888" cy="39.8525" rx="1.82593" ry="3.80367" transform="rotate(135 202.888 39.8525)" fill="#E5DAC8"/>
<path d="M120.74 38.9318L133.344 36.8311L120.74 34.7304C115.181 36.4695 115.105 37.4133 120.74 38.9318Z" fill="#E5DAC8" stroke="#E5DAC8"/>
<path d="M138.246 52.2398L136.145 39.6356L134.045 52.2398C135.784 57.7988 136.728 57.8748 138.246 52.2398Z" fill="#E5DAC8" stroke="#E5DAC8"/>
<path d="M134.045 21.4258L136.146 34.03L138.246 21.4258C136.507 15.8668 135.563 15.7909 134.045 21.4258Z" fill="#E5DAC8" stroke="#E5DAC8"/>
<path d="M150.854 34.7303L138.25 36.8311L150.854 38.9318C156.413 37.1927 156.489 36.2488 150.854 34.7303Z" fill="#E5DAC8" stroke="#E5DAC8"/>
<circle cx="135.796" cy="36.4809" r="30.9602" transform="rotate(180 135.796 36.4809)" stroke="#E5DAC8"/>
<path d="M73.1244 4.97033C73.1244 22.1798 87.0754 36.1308 104.285 36.1308C121.494 36.1308 135.445 22.1798 135.445 4.97033" stroke="#E5DAC8"/>
<circle cx="104.635" cy="68.3416" r="32.0106" transform="rotate(180 104.635 68.3416)" stroke="#E5DAC8"/>
<circle cx="136.127" cy="98.8672" r="30.6105" transform="rotate(138.623 136.127 98.8672)" stroke="#E5DAC8"/>
<circle cx="136.496" cy="4.27011" r="10.6534" transform="rotate(180 136.496 4.27011)" stroke="#E5DAC8"/>
<circle cx="136.496" cy="67.9915" r="10.6534" transform="rotate(180 136.496 67.9915)" stroke="#E5DAC8"/>
<circle cx="168.706" cy="36.4809" r="10.6534" transform="rotate(180 168.706 36.4809)" stroke="#E5DAC8"/>
<ellipse cx="132.165" cy="32.8503" rx="1.82593" ry="3.80367" transform="rotate(135 132.165 32.8503)" fill="#E5DAC8"/>
<ellipse cx="132.165" cy="40.5529" rx="1.82593" ry="3.80367" transform="rotate(-135 132.165 40.5529)" fill="#E5DAC8"/>
<ellipse cx="140.568" cy="32.8503" rx="1.82593" ry="3.80367" transform="rotate(-135 140.568 32.8503)" fill="#E5DAC8"/>
<ellipse cx="139.867" cy="40.5529" rx="1.82593" ry="3.80367" transform="rotate(135 139.867 40.5529)" fill="#E5DAC8"/>
<path d="M58.419 38.9317L71.0232 36.831L58.419 34.7303C52.86 36.4694 52.784 37.4132 58.419 38.9317Z" fill="#E5DAC8" stroke="#E5DAC8"/>
<path d="M75.9253 52.2398L73.8246 39.6355L71.7239 52.2398C73.463 57.7988 74.4068 57.8747 75.9253 52.2398Z" fill="#E5DAC8" stroke="#E5DAC8"/>
<path d="M71.7236 21.4257L73.8243 34.03L75.925 21.4257C74.1859 15.8667 73.2421 15.7908 71.7236 21.4257Z" fill="#E5DAC8" stroke="#E5DAC8"/>
<path d="M88.5332 34.7303L75.9289 36.831L88.5332 38.9317C94.0922 37.1926 94.1681 36.2488 88.5332 34.7303Z" fill="#E5DAC8" stroke="#E5DAC8"/>
<circle cx="73.4743" cy="36.4809" r="30.9602" transform="rotate(180 73.4743 36.4809)" stroke="#E5DAC8"/>
<circle cx="72.7738" cy="4.97031" r="10.6534" transform="rotate(180 72.7738 4.97031)" stroke="#E5DAC8"/>
<circle cx="41.9638" cy="36.4809" r="10.6534" transform="rotate(180 41.9638 36.4809)" stroke="#E5DAC8"/>
<circle cx="11.1532" cy="6.37076" r="10.6534" transform="rotate(180 11.1532 6.37076)" stroke="#E5DAC8"/>
<circle cx="74.1747" cy="67.9915" r="10.6534" transform="rotate(180 74.1747 67.9915)" stroke="#E5DAC8"/>
<circle cx="103.584" cy="36.4809" r="10.6534" transform="rotate(180 103.584 36.4809)" stroke="#E5DAC8"/>
<ellipse cx="69.8435" cy="32.8503" rx="1.82593" ry="3.80367" transform="rotate(135 69.8435 32.8503)" fill="#E5DAC8"/>
<ellipse cx="69.8438" cy="40.5528" rx="1.82593" ry="3.80367" transform="rotate(-135 69.8438 40.5528)" fill="#E5DAC8"/>
<ellipse cx="78.2466" cy="32.8503" rx="1.82593" ry="3.80367" transform="rotate(-135 78.2466 32.8503)" fill="#E5DAC8"/>
<ellipse cx="77.5461" cy="40.5528" rx="1.82593" ry="3.80367" transform="rotate(135 77.5461 40.5528)" fill="#E5DAC8"/>
</svg>
