<svg width="366" height="244" viewBox="0 0 366 244" fill="none" xmlns="http://www.w3.org/2000/svg">
<path d="M56.4042 205.13L43.8699 207.219L56.4042 209.308C61.9323 207.579 62.0078 206.64 56.4042 205.13Z" fill="#E5DAC8" stroke="#E5DAC8"/>
<path d="M38.9951 191.896L41.0842 204.43L43.1732 191.896C41.4437 186.368 40.5052 186.292 38.9951 191.896Z" fill="#E5DAC8" stroke="#E5DAC8"/>
<path d="M43.1733 222.539L41.0843 210.005L38.9953 222.539C40.7247 228.067 41.6633 228.142 43.1733 222.539Z" fill="#E5DAC8" stroke="#E5DAC8"/>
<path d="M25.0646 209.308L37.5988 207.219L25.0646 205.13C19.5365 206.86 19.461 207.798 25.0646 209.308Z" fill="#E5DAC8" stroke="#E5DAC8"/>
<circle cx="41.4326" cy="207.567" r="30.791" stroke="#E5DAC8"/>
<path d="M103.059 238.903C103.059 221.789 89.1857 207.916 72.0718 207.916C54.958 207.916 41.0845 221.789 41.0845 238.903" stroke="#E5DAC8"/>
<path d="M40.3882 237.51C40.3882 220.781 26.8264 207.219 10.0972 207.219" stroke="#E5DAC8"/>
<path d="M9.74902 206.523C26.6706 206.523 40.3882 192.805 40.3882 175.884C40.3882 158.962 26.6706 145.244 9.74902 145.244" stroke="#E5DAC8"/>
<circle cx="72.42" cy="175.884" r="31.8355" stroke="#E5DAC8"/>
<circle cx="40.7362" cy="238.903" r="10.597" stroke="#E5DAC8"/>
<circle cx="40.7362" cy="175.535" r="10.597" stroke="#E5DAC8"/>
<circle cx="10.097" cy="206.871" r="10.597" stroke="#E5DAC8"/>
<ellipse cx="45.0431" cy="211.178" rx="1.81579" ry="3.78253" transform="rotate(-45 45.0431 211.178)" fill="#E5DAC8"/>
<ellipse cx="45.0429" cy="203.518" rx="1.81579" ry="3.78253" transform="rotate(45 45.0429 203.518)" fill="#E5DAC8"/>
<ellipse cx="36.6869" cy="211.178" rx="1.81579" ry="3.78253" transform="rotate(45 36.6869 211.178)" fill="#E5DAC8"/>
<ellipse cx="37.3834" cy="203.518" rx="1.81579" ry="3.78253" transform="rotate(-45 37.3834 203.518)" fill="#E5DAC8"/>
<path d="M119.157 142.448L106.552 144.548L119.157 146.649C124.716 144.91 124.792 143.966 119.157 142.448Z" fill="#E5DAC8" stroke="#E5DAC8"/>
<path d="M117.234 80.1266L105.152 81.8772L117.234 83.6278C122.562 82.1785 122.635 81.392 117.234 80.1266Z" fill="#E5DAC8" stroke="#E5DAC8"/>
<path d="M54.9128 17.8057L42.8311 19.5563L54.9128 21.3068C60.2413 19.8576 60.3141 19.0711 54.9128 17.8057Z" fill="#E5DAC8" stroke="#E5DAC8"/>
<path d="M101.651 129.139L103.752 141.744L105.852 129.139C104.113 123.58 103.169 123.504 101.651 129.139Z" fill="#E5DAC8" stroke="#E5DAC8"/>
<path d="M100.951 67.3447L102.701 79.4263L104.452 67.3447C103.003 62.0161 102.216 61.9433 100.951 67.3447Z" fill="#E5DAC8" stroke="#E5DAC8"/>
<path d="M38.6294 5.02374L40.38 17.1054L42.1306 5.02374C40.6813 -0.304787 39.8948 -0.37758 38.6294 5.02374Z" fill="#E5DAC8" stroke="#E5DAC8"/>
<path d="M105.852 159.953L103.751 147.349L101.651 159.953C103.39 165.512 104.334 165.588 105.852 159.953Z" fill="#E5DAC8" stroke="#E5DAC8"/>
<path d="M104.452 96.4097L102.701 84.3281L100.95 96.4097C102.4 101.738 103.186 101.811 104.452 96.4097Z" fill="#E5DAC8" stroke="#E5DAC8"/>
<path d="M42.1309 34.0887L40.3803 22.007L38.6297 34.0887C40.0789 39.4172 40.8654 39.49 42.1309 34.0887Z" fill="#E5DAC8" stroke="#E5DAC8"/>
<path d="M87.6426 146.649L100.247 144.548L87.6426 142.448C82.0836 144.187 82.0077 145.13 87.6426 146.649Z" fill="#E5DAC8" stroke="#E5DAC8"/>
<path d="M87.4686 83.6278L99.5502 81.8772L87.4686 80.1266C82.14 81.5759 82.0672 82.3624 87.4686 83.6278Z" fill="#E5DAC8" stroke="#E5DAC8"/>
<path d="M25.1473 21.3069L37.2289 19.5563L25.1473 17.8057C19.8187 19.255 19.746 20.0415 25.1473 21.3069Z" fill="#E5DAC8" stroke="#E5DAC8"/>
<circle cx="104.101" cy="144.898" r="30.9602" stroke="#E5DAC8"/>
<circle cx="72.241" cy="113.038" r="31.3104" stroke="#E5DAC8"/>
<circle cx="41.4305" cy="82.2273" r="31.3104" stroke="#E5DAC8"/>
<circle cx="103.051" cy="81.527" r="31.3104" stroke="#E5DAC8"/>
<circle cx="41.4304" cy="143.848" r="30.6101" stroke="#E5DAC8"/>
<path d="M9.91992 143.848C27.3227 143.848 41.4305 129.74 41.4305 112.337C41.4305 94.9346 27.3227 80.8268 9.91992 80.8268" stroke="#E5DAC8"/>
<path d="M9.91992 81.5271C26.936 81.5271 40.7303 67.7328 40.7303 50.7167C40.7303 33.7006 26.936 19.9064 9.91992 19.9064" stroke="#E5DAC8"/>
<path d="M103.051 51.0669C103.051 68.083 89.2571 81.8772 72.241 81.8772C55.2249 81.8772 41.4307 71.0236 41.4307 51.0669C41.4306 31.1102 51.5841 19.2062 72.241 19.2062" stroke="#E5DAC8"/>
<path d="M72.2408 19.5563C72.2408 36.5724 58.4466 50.3666 41.4305 50.3666C24.4144 50.3666 10.6202 39.513 10.6201 19.5563" stroke="#E5DAC8"/>
<circle cx="135.262" cy="113.038" r="32.0106" stroke="#E5DAC8"/>
<circle cx="104.102" cy="111.987" r="10.6534" stroke="#E5DAC8"/>
<circle cx="103.401" cy="49.6664" r="10.6534" stroke="#E5DAC8"/>
<circle cx="40.38" cy="49.6664" r="10.6534" stroke="#E5DAC8"/>
<circle cx="71.1905" cy="144.198" r="10.6534" stroke="#E5DAC8"/>
<circle cx="10.9703" cy="142.097" r="10.6534" stroke="#E5DAC8"/>
<circle cx="40.38" cy="111.987" r="10.6534" stroke="#E5DAC8"/>
<ellipse cx="107.732" cy="148.529" rx="1.82593" ry="3.80367" transform="rotate(-45 107.732 148.529)" fill="#E5DAC8"/>
<ellipse cx="106.456" cy="85.6689" rx="1.72999" ry="3.6038" transform="rotate(-45 106.456 85.6689)" fill="#E5DAC8"/>
<ellipse cx="44.1272" cy="23.353" rx="1.72939" ry="3.60256" transform="rotate(-45 44.1272 23.353)" fill="#E5DAC8"/>
<ellipse cx="107.732" cy="140.826" rx="1.82593" ry="3.80367" transform="rotate(45 107.732 140.826)" fill="#E5DAC8"/>
<ellipse cx="106.456" cy="78.3709" rx="1.72999" ry="3.6038" transform="rotate(45 106.456 78.3709)" fill="#E5DAC8"/>
<ellipse cx="44.1271" cy="16.0576" rx="1.72939" ry="3.60256" transform="rotate(45 44.1271 16.0576)" fill="#E5DAC8"/>
<ellipse cx="99.3291" cy="148.529" rx="1.82593" ry="3.80367" transform="rotate(45 99.3291 148.529)" fill="#E5DAC8"/>
<ellipse cx="98.4948" cy="85.6689" rx="1.72999" ry="3.6038" transform="rotate(45 98.4948 85.6689)" fill="#E5DAC8"/>
<ellipse cx="36.1686" cy="23.353" rx="1.72939" ry="3.60256" transform="rotate(45 36.1686 23.353)" fill="#E5DAC8"/>
<ellipse cx="100.03" cy="140.826" rx="1.82593" ry="3.80367" transform="rotate(-45 100.03 140.826)" fill="#E5DAC8"/>
<ellipse cx="99.1583" cy="78.371" rx="1.72999" ry="3.6038" transform="rotate(-45 99.1583 78.371)" fill="#E5DAC8"/>
<ellipse cx="36.8318" cy="16.0576" rx="1.72939" ry="3.60256" transform="rotate(-45 36.8318 16.0576)" fill="#E5DAC8"/>
<path d="M119.857 204.768L107.253 206.869L119.857 208.97C125.416 207.231 125.492 206.287 119.857 204.768Z" fill="#E5DAC8" stroke="#E5DAC8"/>
<path d="M102.351 191.46L104.452 204.064L106.552 191.46C104.813 185.901 103.87 185.825 102.351 191.46Z" fill="#E5DAC8" stroke="#E5DAC8"/>
<path d="M106.552 222.274L104.452 209.67L102.351 222.274C104.09 227.833 105.034 227.909 106.552 222.274Z" fill="#E5DAC8" stroke="#E5DAC8"/>
<path d="M88.3423 208.97L100.947 206.869L88.3423 204.768C82.7833 206.507 82.7074 207.451 88.3423 208.97Z" fill="#E5DAC8" stroke="#E5DAC8"/>
<circle cx="104.802" cy="207.219" r="30.9602" stroke="#E5DAC8"/>
<path d="M166.773 238.73C166.773 221.52 152.822 207.569 135.612 207.569C118.403 207.569 104.452 221.52 104.452 238.73" stroke="#E5DAC8"/>
<circle cx="135.612" cy="175.709" r="31.6605" stroke="#E5DAC8"/>
<circle cx="104.102" cy="238.73" r="10.6534" stroke="#E5DAC8"/>
<circle cx="104.102" cy="175.008" r="10.6534" stroke="#E5DAC8"/>
<circle cx="73.2911" cy="206.519" r="10.6534" stroke="#E5DAC8"/>
<ellipse cx="108.432" cy="210.85" rx="1.82593" ry="3.80367" transform="rotate(-45 108.432 210.85)" fill="#E5DAC8"/>
<ellipse cx="108.432" cy="203.147" rx="1.82593" ry="3.80367" transform="rotate(45 108.432 203.147)" fill="#E5DAC8"/>
<ellipse cx="100.029" cy="210.85" rx="1.82593" ry="3.80367" transform="rotate(45 100.029 210.85)" fill="#E5DAC8"/>
<ellipse cx="100.73" cy="203.147" rx="1.82593" ry="3.80367" transform="rotate(-45 100.73 203.147)" fill="#E5DAC8"/>
<path d="M182.178 142.448L169.573 144.548L182.178 146.649C187.737 144.91 187.813 143.966 182.178 142.448Z" fill="#E5DAC8" stroke="#E5DAC8"/>
<path d="M164.672 129.139L166.773 141.744L168.873 129.139C167.134 123.58 166.19 123.504 164.672 129.139Z" fill="#E5DAC8" stroke="#E5DAC8"/>
<path d="M168.873 159.953L166.772 147.349L164.672 159.953C166.411 165.512 167.355 165.588 168.873 159.953Z" fill="#E5DAC8" stroke="#E5DAC8"/>
<path d="M150.664 146.649L163.268 144.548L150.664 142.448C145.105 144.187 145.029 145.13 150.664 146.649Z" fill="#E5DAC8" stroke="#E5DAC8"/>
<circle cx="167.123" cy="144.898" r="30.9602" stroke="#E5DAC8"/>
<circle cx="197.583" cy="113.738" r="31.3104" stroke="#E5DAC8"/>
<circle cx="166.422" cy="111.987" r="10.6534" stroke="#E5DAC8"/>
<circle cx="135.612" cy="80.4767" r="10.6534" stroke="#E5DAC8"/>
<circle cx="71.8907" cy="80.4767" r="10.6534" stroke="#E5DAC8"/>
<circle cx="135.612" cy="144.198" r="10.6534" stroke="#E5DAC8"/>
<ellipse cx="170.753" cy="148.529" rx="1.82593" ry="3.80367" transform="rotate(-45 170.753 148.529)" fill="#E5DAC8"/>
<ellipse cx="170.753" cy="140.826" rx="1.82593" ry="3.80367" transform="rotate(45 170.753 140.826)" fill="#E5DAC8"/>
<ellipse cx="162.351" cy="148.529" rx="1.82593" ry="3.80367" transform="rotate(45 162.351 148.529)" fill="#E5DAC8"/>
<ellipse cx="163.051" cy="140.826" rx="1.82593" ry="3.80367" transform="rotate(-45 163.051 140.826)" fill="#E5DAC8"/>
<path d="M182.178 204.769L169.574 206.869L182.178 208.97C187.737 207.231 187.813 206.287 182.178 204.769Z" fill="#E5DAC8" stroke="#E5DAC8"/>
<path d="M164.672 191.46L166.773 204.065L168.874 191.46C167.135 185.901 166.191 185.826 164.672 191.46Z" fill="#E5DAC8" stroke="#E5DAC8"/>
<path d="M168.874 222.275L166.773 209.67L164.672 222.275C166.411 227.834 167.355 227.909 168.874 222.275Z" fill="#E5DAC8" stroke="#E5DAC8"/>
<path d="M150.664 208.97L163.268 206.869L150.664 204.769C145.105 206.508 145.029 207.451 150.664 208.97Z" fill="#E5DAC8" stroke="#E5DAC8"/>
<circle cx="167.123" cy="207.219" r="30.9602" stroke="#E5DAC8"/>
<path d="M229.794 237.33C229.794 220.12 215.843 206.169 198.634 206.169C181.424 206.169 167.473 220.12 167.473 237.33" stroke="#E5DAC8"/>
<circle cx="197.583" cy="175.359" r="32.0106" stroke="#E5DAC8"/>
<circle cx="166.423" cy="238.73" r="10.6534" stroke="#E5DAC8"/>
<circle cx="166.423" cy="175.009" r="10.6534" stroke="#E5DAC8"/>
<circle cx="135.612" cy="206.519" r="10.6534" stroke="#E5DAC8"/>
<ellipse cx="170.754" cy="210.85" rx="1.82593" ry="3.80367" transform="rotate(-45 170.754 210.85)" fill="#E5DAC8"/>
<ellipse cx="170.753" cy="203.147" rx="1.82593" ry="3.80367" transform="rotate(45 170.753 203.147)" fill="#E5DAC8"/>
<ellipse cx="162.351" cy="210.85" rx="1.82593" ry="3.80367" transform="rotate(45 162.351 210.85)" fill="#E5DAC8"/>
<ellipse cx="163.051" cy="203.147" rx="1.82593" ry="3.80367" transform="rotate(-45 163.051 203.147)" fill="#E5DAC8"/>
<path d="M245.199 204.068L232.595 206.169L245.199 208.27C250.758 206.531 250.834 205.587 245.199 204.068Z" fill="#E5DAC8" stroke="#E5DAC8"/>
<path d="M227.693 190.76L229.794 203.364L231.895 190.76C230.156 185.201 229.212 185.125 227.693 190.76Z" fill="#E5DAC8" stroke="#E5DAC8"/>
<path d="M231.895 221.574L229.794 208.97L227.693 221.574C229.432 227.133 230.376 227.209 231.895 221.574Z" fill="#E5DAC8" stroke="#E5DAC8"/>
<path d="M215.085 208.27L227.69 206.169L215.085 204.068C209.526 205.807 209.451 206.751 215.085 208.27Z" fill="#E5DAC8" stroke="#E5DAC8"/>
<circle cx="230.144" cy="206.519" r="30.9602" stroke="#E5DAC8"/>
<path d="M292.815 238.03C292.815 220.82 278.864 206.869 261.655 206.869C244.445 206.869 230.494 220.82 230.494 238.03" stroke="#E5DAC8"/>
<circle cx="261.305" cy="174.658" r="32.0106" stroke="#E5DAC8"/>
<circle cx="229.813" cy="144.133" r="30.6105" transform="rotate(-41.377 229.813 144.133)" stroke="#E5DAC8"/>
<circle cx="229.444" cy="238.73" r="10.6534" stroke="#E5DAC8"/>
<circle cx="229.444" cy="175.009" r="10.6534" stroke="#E5DAC8"/>
<circle cx="197.233" cy="206.519" r="10.6534" stroke="#E5DAC8"/>
<ellipse cx="233.775" cy="210.15" rx="1.82593" ry="3.80367" transform="rotate(-45 233.775 210.15)" fill="#E5DAC8"/>
<ellipse cx="233.774" cy="202.447" rx="1.82593" ry="3.80367" transform="rotate(45 233.774 202.447)" fill="#E5DAC8"/>
<ellipse cx="225.372" cy="210.15" rx="1.82593" ry="3.80367" transform="rotate(45 225.372 210.15)" fill="#E5DAC8"/>
<ellipse cx="226.072" cy="202.447" rx="1.82593" ry="3.80367" transform="rotate(-45 226.072 202.447)" fill="#E5DAC8"/>
<path d="M307.52 204.068L294.916 206.169L307.52 208.27C313.079 206.531 313.155 205.587 307.52 204.068Z" fill="#E5DAC8" stroke="#E5DAC8"/>
<path d="M290.014 190.76L292.115 203.365L294.216 190.76C292.476 185.201 291.533 185.125 290.014 190.76Z" fill="#E5DAC8" stroke="#E5DAC8"/>
<path d="M294.216 221.574L292.115 208.97L290.014 221.574C291.754 227.133 292.697 227.209 294.216 221.574Z" fill="#E5DAC8" stroke="#E5DAC8"/>
<path d="M277.406 208.27L290.011 206.169L277.406 204.068C271.847 205.807 271.771 206.751 277.406 208.27Z" fill="#E5DAC8" stroke="#E5DAC8"/>
<circle cx="292.465" cy="206.519" r="30.9602" stroke="#E5DAC8"/>
<circle cx="293.166" cy="238.03" r="10.6534" stroke="#E5DAC8"/>
<circle cx="323.976" cy="206.519" r="10.6534" stroke="#E5DAC8"/>
<circle cx="354.786" cy="236.629" r="10.6534" stroke="#E5DAC8"/>
<circle cx="291.765" cy="175.009" r="10.6534" stroke="#E5DAC8"/>
<circle cx="262.355" cy="206.519" r="10.6534" stroke="#E5DAC8"/>
<ellipse cx="296.096" cy="210.15" rx="1.82593" ry="3.80367" transform="rotate(-45 296.096 210.15)" fill="#E5DAC8"/>
<ellipse cx="296.096" cy="202.447" rx="1.82593" ry="3.80367" transform="rotate(45 296.096 202.447)" fill="#E5DAC8"/>
<ellipse cx="287.693" cy="210.15" rx="1.82593" ry="3.80367" transform="rotate(45 287.693 210.15)" fill="#E5DAC8"/>
<ellipse cx="288.393" cy="202.447" rx="1.82593" ry="3.80367" transform="rotate(-45 288.393 202.447)" fill="#E5DAC8"/>
</svg>
