<svg width="93" height="93" viewBox="0 0 93 93" fill="none" xmlns="http://www.w3.org/2000/svg">
<path d="M79.9646 63.2355L85.6067 66.5537L85.2072 67.2383L82.6948 65.7606L80.9359 68.7751L83.4484 70.2527L83.049 70.9373L77.4069 67.6191L77.8064 66.9345L80.3299 68.4187L82.0887 65.4042L79.5652 63.9201L79.9646 63.2355Z" fill="#E5DAC8"/>
<path d="M75.5953 75.0342C75.069 74.5875 74.6944 74.1061 74.4716 73.5901C74.2488 73.074 74.1734 72.5615 74.2454 72.0525C74.3174 71.5435 74.5332 71.0755 74.8928 70.6485C75.2523 70.2215 75.6761 69.9299 76.164 69.7739C76.6518 69.6179 77.1678 69.6073 77.7117 69.7419C78.2556 69.8766 78.7908 70.1673 79.3171 70.614C79.8434 71.0607 80.218 71.5421 80.4408 72.0582C80.6636 72.5743 80.739 73.0868 80.667 73.5958C80.595 74.1047 80.3792 74.5727 80.0196 74.9998C79.6601 75.4268 79.2363 75.7183 78.7484 75.8743C78.2606 76.0303 77.7446 76.041 77.2007 75.9063C76.6568 75.7716 76.1216 75.4809 75.5953 75.0342ZM76.0893 74.4475C76.5215 74.8142 76.9472 75.0512 77.3666 75.1585C77.7847 75.2673 78.1737 75.2635 78.5336 75.147C78.8921 75.0321 79.199 74.8231 79.4543 74.52C79.7096 74.2168 79.8644 73.8774 79.919 73.5017C79.9721 73.1276 79.9111 72.7419 79.736 72.3445C79.5595 71.9488 79.2552 71.5675 78.8231 71.2008C78.3909 70.834 77.9659 70.5962 77.5478 70.4873C77.1284 70.3801 76.7394 70.3839 76.3809 70.4988C76.0209 70.6153 75.7134 70.8251 75.4581 71.1283C75.2028 71.4314 75.0486 71.7701 74.9955 72.1441C74.941 72.5199 75.002 72.9056 75.1785 73.3013C75.3536 73.6987 75.6572 74.0807 76.0893 74.4475Z" fill="#E5DAC8"/>
<path d="M72.3129 73.6163L76.565 78.5925L74.8893 80.0359C74.5018 80.3696 74.127 80.5771 73.7649 80.6584C73.4042 80.7414 73.0658 80.7193 72.7498 80.5921C72.4338 80.465 72.1505 80.2549 71.9 79.9617C71.6494 79.6685 71.487 79.357 71.4127 79.0274C71.3384 78.6977 71.3694 78.3617 71.5056 78.0193C71.6433 77.6786 71.9042 77.3428 72.2884 77.0119L73.6445 75.8438L74.1096 76.3881L72.7729 77.5394C72.5081 77.7675 72.3283 77.9899 72.2333 78.2067C72.1366 78.4249 72.1129 78.6366 72.1621 78.8417C72.211 79.0498 72.3206 79.2535 72.4908 79.4527C72.6611 79.652 72.847 79.7941 73.0486 79.8792C73.2502 79.9643 73.4672 79.9771 73.6994 79.9176C73.9331 79.8598 74.1839 79.7155 74.4519 79.4846L75.5077 78.5752L71.7123 74.1336L72.3129 73.6163ZM71.8886 77.8624L68.758 76.6783L69.4554 76.0776L72.5667 77.2784L71.8886 77.8624Z" fill="#E5DAC8"/>
<path d="M70.799 83.1398L67.1151 77.7295L67.7686 77.281L71.4525 82.6913L70.799 83.1398Z" fill="#E5DAC8"/>
<path d="M65.8579 78.6105L66.1256 79.1197L65.4586 85.4339L68.6102 83.7639L68.9374 84.3863L64.9498 86.4992L64.6822 85.99L65.3491 79.6758L62.1975 81.3458L61.8703 80.7234L65.8579 78.6105Z" fill="#E5DAC8"/>
<path d="M56.6917 86.0543C56.472 85.3999 56.4002 84.7944 56.4763 84.2378C56.5523 83.6812 56.7528 83.2039 57.0778 82.806C57.4027 82.4082 57.8295 82.1197 58.3583 81.9408C58.8871 81.7618 59.4007 81.732 59.8992 81.8512C60.3978 81.9704 60.8451 82.2284 61.2413 82.6251C61.6375 83.0219 61.9454 83.5475 62.1652 84.2019C62.3849 84.8564 62.4567 85.4619 62.3806 86.0185C62.3046 86.5751 62.1041 87.0524 61.7791 87.4502C61.4542 87.8481 61.0274 88.1365 60.4986 88.3155C59.9698 88.4945 59.4562 88.5243 58.9576 88.4051C58.4591 88.2859 58.0118 88.0279 57.6156 87.6312C57.2194 87.2344 56.9115 86.7088 56.6917 86.0543ZM57.4183 85.8084C57.5987 86.3457 57.8407 86.7688 58.1445 87.0776C58.4462 87.3872 58.7813 87.5853 59.1498 87.672C59.5163 87.7594 59.8872 87.7396 60.2626 87.6126C60.638 87.4855 60.9462 87.2755 61.1872 86.9825C61.4262 86.6902 61.5734 86.3288 61.629 85.8984C61.6825 85.4686 61.619 84.9851 61.4386 84.4478C61.2582 83.9106 61.0172 83.4871 60.7155 83.1776C60.4117 82.8688 60.0766 82.6706 59.7101 82.5832C59.3416 82.4965 58.9697 82.5167 58.5943 82.6437C58.2189 82.7707 57.9117 82.9804 57.6727 83.2728C57.4317 83.5658 57.2845 83.9271 57.231 84.3569C57.1755 84.7873 57.2379 85.2712 57.4183 85.8084Z" fill="#E5DAC8"/>
<path d="M50.5396 90.4074L49.564 83.935L50.3224 83.8198L54.6146 88.3659L54.6778 88.3563L53.9119 83.2745L54.6955 83.1554L55.671 89.6278L54.9127 89.743L50.6059 85.1862L50.5427 85.1958L51.3106 90.2903L50.5396 90.4074Z" fill="#E5DAC8"/>
<path d="M48.3895 89.836L48.3814 90.539L43.4726 90.482L43.4807 89.7789L45.5388 89.8028L45.6062 83.9609L46.3988 83.9701L46.3314 89.812L48.3895 89.836Z" fill="#E5DAC8"/>
<path d="M41.9907 83.7437L42.8097 83.8843L39.342 89.9302L38.5357 89.7918L37.2658 82.9326L38.0848 83.0732L39.0875 88.8358L39.1379 88.8445L41.9907 83.7437ZM41.2591 86.2123L37.9579 85.6456L38.076 84.9525L41.3771 85.5192L41.2591 86.2123Z" fill="#E5DAC8"/>
<path d="M35.9018 82.4729L33.7719 88.6621L33.0231 88.4024L34.9242 82.878L32.0496 81.8809L32.2784 81.216L35.9018 82.4729Z" fill="#E5DAC8"/>
<path d="M18.0514 77.8368C17.872 78.1094 17.8287 78.4024 17.9213 78.7158C18.014 79.0291 18.2114 79.3141 18.5135 79.5705C18.7345 79.758 18.958 79.8862 19.184 79.9551C19.4085 80.0227 19.6199 80.033 19.8181 79.9861C20.0148 79.9378 20.1803 79.8338 20.3148 79.674C20.4274 79.5404 20.4924 79.3986 20.51 79.2487C20.5247 79.099 20.5084 78.9496 20.4612 78.8006C20.4126 78.6532 20.3502 78.5122 20.2741 78.3777C20.1966 78.2448 20.1218 78.1269 20.0498 78.0239L19.6582 77.4568C19.5571 77.3123 19.4523 77.1423 19.3439 76.9469C19.2338 76.7501 19.1496 76.5375 19.0913 76.3091C19.0299 76.0809 19.0192 75.8455 19.0592 75.6028C19.0993 75.3601 19.2181 75.1214 19.4157 74.8867C19.6435 74.6161 19.92 74.4316 20.2452 74.3332C20.5688 74.2333 20.9197 74.2335 21.2978 74.3336C21.6742 74.4323 22.0541 74.6444 22.4375 74.9698C22.7949 75.2731 23.0556 75.5936 23.2197 75.9313C23.3822 76.2676 23.451 76.6027 23.4262 76.9365C23.3997 77.269 23.281 77.5804 23.0699 77.8707L22.4461 77.3413C22.5891 77.1385 22.6574 76.9282 22.6513 76.7106C22.6421 76.4932 22.5776 76.282 22.4579 76.0769C22.3351 75.8721 22.1746 75.6856 21.9764 75.5174C21.7457 75.3216 21.507 75.1833 21.2603 75.1025C21.0123 75.0233 20.7777 75.0058 20.5566 75.0501C20.3341 75.096 20.146 75.2103 19.9923 75.3928C19.8523 75.5591 19.7847 75.7336 19.7894 75.9165C19.7942 76.0994 19.8447 76.2876 19.9409 76.481C20.037 76.6744 20.1523 76.87 20.2865 77.0678L20.7524 77.765C21.0476 78.2084 21.221 78.6309 21.2728 79.0325C21.3246 79.4342 21.2084 79.8037 20.9243 80.1411C20.6883 80.4214 20.4069 80.6018 20.0802 80.6822C19.7504 80.7628 19.4085 80.7521 19.0544 80.65C18.6973 80.5481 18.3596 80.362 18.0412 80.0918C17.7195 79.8188 17.4823 79.5183 17.3296 79.1903C17.1755 78.8638 17.1091 78.5392 17.1303 78.2162C17.1499 77.8919 17.262 77.6 17.4666 77.3405L18.0514 77.8368Z" fill="#E5DAC8"/>
<path d="M12.9138 71.6338L13.4288 72.2364C13.2865 72.4208 13.188 72.6139 13.1334 72.8156C13.0773 73.0157 13.0589 73.2172 13.0781 73.42C13.0943 73.6226 13.1448 73.8195 13.2297 74.0107C13.3146 74.2019 13.4277 74.3801 13.5689 74.5453C13.8263 74.8466 14.1354 75.0542 14.4962 75.1681C14.8556 75.2804 15.2446 75.2814 15.6632 75.1711C16.0804 75.0591 16.5038 74.8182 16.9332 74.4484C17.3626 74.0785 17.6641 73.695 17.8378 73.298C18.01 72.8994 18.0682 72.5132 18.0123 72.1395C17.9551 71.7642 17.7977 71.4259 17.5403 71.1247C17.3991 70.9594 17.2408 70.8202 17.0655 70.7068C16.8902 70.5935 16.7049 70.5127 16.5095 70.4645C16.3111 70.416 16.1092 70.4043 15.9037 70.4295C15.6952 70.4544 15.4901 70.5228 15.2885 70.6345L14.7736 70.0319C15.0658 69.859 15.3633 69.7462 15.6659 69.6937C15.9685 69.6411 16.2661 69.6434 16.5589 69.7006C16.8499 69.7592 17.1266 69.8682 17.3889 70.0276C17.6498 70.1853 17.8875 70.3897 18.1021 70.6408C18.4647 71.0652 18.6839 71.5316 18.7596 72.04C18.8354 72.5484 18.7637 73.0615 18.5447 73.5792C18.3256 74.0969 17.9546 74.581 17.4315 75.0315C16.9084 75.482 16.3754 75.7766 15.8325 75.9153C15.2895 76.0539 14.7736 76.047 14.2845 75.8945C13.7955 75.7421 13.3697 75.4536 13.0071 75.0292C12.7925 74.7782 12.6274 74.5112 12.5118 74.2283C12.3949 73.9438 12.3305 73.652 12.3187 73.3528C12.3052 73.0551 12.3474 72.76 12.4452 72.4677C12.5413 72.1768 12.6975 71.8989 12.9138 71.6338Z" fill="#E5DAC8"/>
<path d="M15.7124 67.7334L10.1325 71.155L8.98304 69.2656C8.71727 68.8287 8.57359 68.4244 8.55199 68.0527C8.52859 67.6822 8.60487 67.3505 8.78085 67.0576C8.95684 66.7648 9.20921 66.5175 9.53797 66.3159C9.86674 66.1143 10.1992 66.0029 10.5355 65.9817C10.8717 65.9605 11.1972 66.0446 11.5119 66.234C11.8249 66.4245 12.1131 66.7364 12.3767 67.1696L13.3069 68.6987L12.6965 69.0729L11.7796 67.5657C11.598 67.2671 11.4083 67.0536 11.2103 66.925C11.0113 66.7946 10.807 66.7375 10.5973 66.7536C10.3847 66.769 10.1667 66.8452 9.94327 66.9822C9.71986 67.1192 9.55006 67.2808 9.4339 67.467C9.31773 67.6532 9.27016 67.8661 9.29118 68.1056C9.31039 68.3463 9.41191 68.6177 9.59573 68.9198L10.3199 70.1103L15.3005 67.0563L15.7124 67.7334ZM11.6045 66.6383L13.274 63.7251L13.7524 64.5115L12.0696 67.4028L11.6045 66.6383Z" fill="#E5DAC8"/>
<path d="M7.84299 59.2071C8.4814 58.9444 9.08022 58.8328 9.63945 58.8723C10.1987 58.9118 10.6865 59.0809 11.103 59.3795C11.5195 59.6782 11.8332 60.0859 12.0442 60.6028C12.2551 61.1196 12.3166 61.6311 12.2287 62.1373C12.1407 62.6435 11.9114 63.1077 11.5406 63.5298C11.1697 63.9519 10.6651 64.2943 10.0267 64.557C9.38831 64.8197 8.78948 64.9313 8.23025 64.8918C7.67103 64.8523 7.18317 64.6833 6.7667 64.3846C6.35022 64.086 6.0365 63.6782 5.82553 63.1614C5.61457 62.6445 5.55306 62.133 5.64101 61.6268C5.72896 61.1206 5.95834 60.6564 6.32915 60.2343C6.69996 59.8122 7.20457 59.4698 7.84299 59.2071ZM8.13286 59.9173C7.60873 60.1329 7.2022 60.4027 6.91328 60.7266C6.62355 61.0486 6.44687 61.3966 6.38324 61.7707C6.3188 62.1428 6.36147 62.5123 6.51124 62.8792C6.66101 63.2462 6.8893 63.5404 7.1961 63.7621C7.5021 63.9818 7.87123 64.1053 8.30348 64.1325C8.73493 64.1577 9.21271 64.0625 9.73684 63.8468C10.261 63.6312 10.6679 63.3624 10.9576 63.0404C11.2466 62.7165 11.4232 62.3685 11.4877 61.9964C11.5513 61.6223 11.5082 61.2518 11.3585 60.8849C11.2087 60.518 10.9808 60.2247 10.6748 60.005C10.368 59.7833 9.99888 59.6598 9.56744 59.6346C9.13518 59.6074 8.65699 59.7016 8.13286 59.9173Z" fill="#E5DAC8"/>
<path d="M10.5523 56.617L4.1755 58.0933L3.99808 57.3208L9.68987 56.0031L9.00879 53.0377L9.6938 52.8791L10.5523 56.617Z" fill="#E5DAC8"/>
<path d="M9.46321 51.1579L2.93738 51.6643L2.87653 50.874L8.70135 50.422L8.46778 47.3884L9.1688 47.334L9.46321 51.1579Z" fill="#E5DAC8"/>
<path d="M12.9826 29.8609L7.34059 26.5427L7.74003 25.858L10.2525 27.3357L12.0113 24.3212L9.49886 22.8436L9.8983 22.159L15.5403 25.4772L15.1409 26.1618L12.6174 24.6777L10.8586 27.6921L13.3821 29.1762L12.9826 29.8609Z" fill="#E5DAC8"/>
<path d="M17.4666 17.9137C17.9913 18.3624 18.3641 18.8451 18.585 19.362C18.806 19.8789 18.8795 20.3917 18.8056 20.9004C18.7317 21.4091 18.5142 21.8763 18.1531 22.302C17.792 22.7277 17.3673 23.0177 16.8788 23.1719C16.3903 23.3262 15.8744 23.335 15.331 23.1983C14.7875 23.0616 14.2534 22.769 13.7287 22.3204C13.204 21.8718 12.8312 21.389 12.6103 20.8721C12.3894 20.3552 12.3158 19.8424 12.3897 19.3337C12.4636 18.825 12.6811 18.3578 13.0422 17.9321C13.4033 17.5064 13.8281 17.2164 14.3165 17.0622C14.805 16.9079 15.3209 16.8991 15.8644 17.0358C16.4078 17.1725 16.9419 17.4651 17.4666 17.9137ZM16.9704 18.4987C16.5396 18.1304 16.1147 17.8918 15.6957 17.7831C15.2781 17.6727 14.8891 17.6751 14.5287 17.7903C14.1698 17.9038 13.8621 18.1117 13.6057 18.414C13.3494 18.7162 13.1933 19.0551 13.1374 19.4306C13.0829 19.8044 13.1425 20.1904 13.3161 20.5884C13.4912 20.9848 13.7941 21.3671 14.2249 21.7354C14.6557 22.1037 15.0799 22.3431 15.4975 22.4535C15.9166 22.5623 16.3056 22.5599 16.6645 22.4463C17.0249 22.3311 17.3332 22.1224 17.5896 21.8202C17.8459 21.5179 18.0014 21.1799 18.0559 20.806C18.1118 20.4305 18.0522 20.0445 17.8771 19.6482C17.7034 19.2502 17.4012 18.867 16.9704 18.4987Z" fill="#E5DAC8"/>
<path d="M20.5611 19.4961L16.309 14.5199L17.9847 13.0766C18.3722 12.7428 18.747 12.5353 19.1091 12.454C19.4698 12.3711 19.8082 12.3932 20.1242 12.5203C20.4402 12.6474 20.7235 12.8576 20.974 13.1508C21.2246 13.4439 21.387 13.7554 21.4613 14.0851C21.5356 14.4147 21.5047 14.7507 21.3684 15.0931C21.2307 15.4338 20.9698 15.7696 20.5856 16.1006L19.2295 17.2686L18.7644 16.7243L20.1011 15.573C20.3659 15.3449 20.5458 15.1225 20.6408 14.9057C20.7374 14.6875 20.7611 14.4759 20.7119 14.2707C20.663 14.0626 20.5534 13.8589 20.3832 13.6597C20.2129 13.4604 20.027 13.3183 19.8254 13.2332C19.6238 13.1482 19.4068 13.1354 19.1746 13.1948C18.9409 13.2526 18.6901 13.397 18.4221 13.6278L17.3663 14.5372L21.1617 18.9788L20.5611 19.4961ZM20.9854 15.25L24.116 16.4342L23.4186 17.0349L20.3074 15.834L20.9854 15.25Z" fill="#E5DAC8"/>
<path d="M22.218 9.85401L25.8821 15.2778L25.227 15.7239L21.5629 10.3001L22.218 9.85401Z" fill="#E5DAC8"/>
<path d="M27.0752 14.4283L26.8075 13.9191L27.4745 7.60494L24.3229 9.27493L23.9957 8.65256L27.9833 6.53963L28.251 7.04885L27.584 13.363L30.7356 11.693L31.0628 12.3154L27.0752 14.4283Z" fill="#E5DAC8"/>
<path d="M36.1633 6.99766C36.383 7.6521 36.4548 8.25763 36.3787 8.81423C36.3026 9.37084 36.1021 9.84808 35.7772 10.246C35.4523 10.6438 35.0255 10.9323 34.4967 11.1112C33.9679 11.2902 33.4543 11.32 32.9557 11.2008C32.4572 11.0816 32.0099 10.8236 31.6137 10.4269C31.2175 10.0301 30.9095 9.50449 30.6898 8.85005C30.4701 8.19561 30.3983 7.59009 30.4743 7.03349C30.5504 6.47688 30.7509 5.99964 31.0758 5.60176C31.4008 5.20387 31.8276 4.91545 32.3564 4.7365C32.8852 4.55754 33.3988 4.52767 33.8973 4.64687C34.3959 4.76608 34.8432 5.02407 35.2394 5.42084C35.6356 5.81762 35.9435 6.34323 36.1633 6.99766ZM35.4367 7.24356C35.2563 6.70627 35.0142 6.2832 34.7105 5.97436C34.4088 5.66483 34.0737 5.4667 33.7052 5.37997C33.3387 5.29255 32.9678 5.31237 32.5924 5.43941C32.217 5.56646 31.9088 5.77648 31.6678 6.06949C31.4288 6.36181 31.2815 6.72319 31.226 7.15362C31.1725 7.58336 31.236 8.06687 31.4164 8.60416C31.5968 9.14145 31.8378 9.56485 32.1395 9.87438C32.4433 10.1832 32.7784 10.3814 33.1448 10.4688C33.5133 10.5555 33.8853 10.5353 34.2607 10.4083C34.6361 10.2813 34.9433 10.0716 35.1823 9.77925C35.4233 9.48625 35.5705 9.12487 35.624 8.69513C35.6795 8.2647 35.6171 7.78084 35.4367 7.24356Z" fill="#E5DAC8"/>
<path d="M42.3838 2.60701L43.3593 9.07936L42.601 9.19458L38.3087 4.64852L38.2455 4.65812L39.0115 9.73992L38.2279 9.85898L37.2523 3.38663L38.0107 3.27142L42.3175 7.8282L42.3806 7.8186L41.6128 2.72415L42.3838 2.60701Z" fill="#E5DAC8"/>
<path d="M44.4349 3.16397L44.443 2.46089L49.3518 2.51739L49.3436 3.22047L47.2855 3.19678L47.2174 9.03871L46.4249 9.02959L46.493 3.18766L44.4349 3.16397Z" fill="#E5DAC8"/>
<path d="M50.9916 9.24742L50.1731 9.10368L53.6638 3.0711L54.4696 3.21263L55.7133 10.0767L54.8949 9.93293L53.9142 4.16643L53.8638 4.15758L50.9916 9.24742ZM51.7326 6.78162L55.0316 7.36099L54.9109 8.05368L51.6119 7.47431L51.7326 6.78162Z" fill="#E5DAC8"/>
<path d="M56.9385 10.4728L59.0684 4.28353L59.8172 4.54329L57.9162 10.0677L60.7908 11.0648L60.562 11.7296L56.9385 10.4728Z" fill="#E5DAC8"/>
<path d="M74.9642 15.1838C75.1446 14.9119 75.189 14.6191 75.0975 14.3054C75.0059 13.9917 74.8096 13.706 74.5084 13.4485C74.2881 13.2602 74.0651 13.1312 73.8393 13.0614C73.615 12.9931 73.4037 12.982 73.2053 13.0282C73.0085 13.0758 72.8425 13.1792 72.7075 13.3384C72.5944 13.4716 72.5289 13.6132 72.5107 13.7631C72.4955 13.9127 72.5113 14.0621 72.5579 14.2113C72.606 14.3589 72.6678 14.5001 72.7435 14.6349C72.8205 14.768 72.8949 14.8863 72.9665 14.9895L73.356 15.558C73.4566 15.7029 73.5608 15.8733 73.6685 16.0691C73.7778 16.2663 73.8612 16.4792 73.9188 16.7078C73.9793 16.9362 73.9891 17.1716 73.9482 17.4142C73.9073 17.6568 73.7876 17.895 73.5892 18.129C73.3604 18.3987 73.0832 18.5822 72.7576 18.6795C72.4337 18.7782 72.0828 18.7767 71.7051 18.6753C71.329 18.5752 70.9499 18.3617 70.5677 18.0349C70.2114 17.7303 69.9518 17.4089 69.789 17.0706C69.6277 16.7337 69.5601 16.3983 69.5862 16.0646C69.6138 15.7322 69.7337 15.4213 69.9458 15.1317L70.5677 15.6634C70.424 15.8657 70.3549 16.0757 70.3602 16.2933C70.3686 16.5107 70.4323 16.7222 70.5514 16.9277C70.6734 17.133 70.8332 17.3201 71.0308 17.489C71.2608 17.6856 71.4989 17.8248 71.7453 17.9065C71.9931 17.9866 72.2276 18.0049 72.4489 17.9614C72.6716 17.9163 72.8601 17.8028 73.0144 17.6208C73.155 17.4551 73.2233 17.2807 73.2192 17.0978C73.2151 16.9149 73.1653 16.7266 73.0698 16.5328C72.9743 16.339 72.8598 16.143 72.7263 15.9447L72.263 15.2458C71.9694 14.8014 71.7975 14.3783 71.7472 13.9764C71.6969 13.5746 71.8144 13.2055 72.0997 12.8692C72.3367 12.5897 72.6188 12.4104 72.9458 12.3311C73.2758 12.2517 73.6177 12.2637 73.9714 12.3671C74.3281 12.4702 74.6652 12.6575 74.9826 12.9289C75.3033 13.2031 75.5394 13.5044 75.6909 13.833C75.8438 14.16 75.9091 14.4849 75.8867 14.8078C75.8659 15.132 75.7527 15.4235 75.5472 15.6823L74.9642 15.1838Z" fill="#E5DAC8"/>
<path d="M80.121 21.4219L79.6083 20.8175C79.7513 20.6336 79.8504 20.4408 79.9058 20.2393C79.9625 20.0394 79.9817 19.838 79.9633 19.6351C79.9478 19.4325 79.898 19.2354 79.8138 19.0439C79.7296 18.8524 79.6172 18.6738 79.4766 18.508C79.2202 18.2058 78.9119 17.9971 78.5515 17.8819C78.1926 17.7683 77.8036 17.7659 77.3846 17.8747C76.9669 17.9851 76.5427 18.2244 76.1119 18.5928C75.6812 18.9611 75.3782 19.3434 75.2032 19.7398C75.0295 20.1378 74.9699 20.5237 75.0244 20.8976C75.0803 21.2731 75.2364 21.612 75.4928 21.9142C75.6334 22.08 75.7911 22.2198 75.966 22.3338C76.1409 22.4477 76.3259 22.5292 76.5211 22.5782C76.7193 22.6274 76.9212 22.6398 77.1268 22.6154C77.3354 22.5912 77.5407 22.5236 77.7427 22.4126L78.2554 23.017C77.9626 23.1889 77.6648 23.3006 77.362 23.352C77.0592 23.4035 76.7615 23.4001 76.469 23.3418C76.1781 23.2821 75.9018 23.1722 75.6401 23.0119C75.3798 22.8532 75.1428 22.6479 74.9292 22.3961C74.5681 21.9704 74.3506 21.5032 74.2767 20.9944C74.2029 20.4857 74.2764 19.9729 74.4973 19.4561C74.7182 18.9392 75.0911 18.4564 75.6158 18.0078C76.1405 17.5592 76.6745 17.2665 77.218 17.1299C77.7614 16.9932 78.2774 17.002 78.7658 17.1562C79.2543 17.3105 79.6791 17.6005 80.0402 18.0262C80.2538 18.278 80.4179 18.5456 80.5325 18.8289C80.6484 19.1138 80.7117 19.4059 80.7225 19.7051C80.7348 20.0029 80.6916 20.2977 80.5927 20.5897C80.4955 20.8802 80.3383 21.1576 80.121 21.4219Z" fill="#E5DAC8"/>
<path d="M77.229 25.1679L82.8089 21.7463L83.9584 23.6358C84.2241 24.0727 84.3678 24.477 84.3894 24.8486C84.4128 25.2192 84.3365 25.5509 84.1606 25.8437C83.9846 26.1366 83.7322 26.3838 83.4034 26.5854C83.0747 26.787 82.7422 26.8984 82.4059 26.9197C82.0697 26.9409 81.7442 26.8568 81.4295 26.6674C81.1165 26.4769 80.8283 26.165 80.5647 25.7318L79.6346 24.2027L80.2449 23.8285L81.1618 25.3357C81.3434 25.6342 81.5331 25.8478 81.7311 25.9763C81.9301 26.1067 82.1344 26.1639 82.3441 26.1478C82.5567 26.1324 82.7747 26.0562 82.9981 25.9192C83.2216 25.7822 83.3913 25.6206 83.5075 25.4344C83.6237 25.2482 83.6712 25.0353 83.6502 24.7958C83.631 24.5551 83.5295 24.2837 83.3457 23.9815L82.6215 22.791L77.6409 25.8451L77.229 25.1679ZM81.3369 26.2631L79.6674 29.1763L79.189 28.3899L80.8718 25.4985L81.3369 26.2631Z" fill="#E5DAC8"/>
<path d="M85.176 33.8649C84.5366 34.1252 83.9374 34.2346 83.3783 34.193C82.8192 34.1514 82.332 33.9805 81.9166 33.6803C81.5013 33.3801 81.1891 32.9712 80.98 32.4536C80.771 31.9359 80.7114 31.4242 80.8012 30.9183C80.8911 30.4125 81.1222 29.9492 81.4946 29.5285C81.867 29.1077 82.3729 28.7672 83.0123 28.5069C83.6516 28.2467 84.2509 28.1373 84.81 28.1789C85.369 28.2204 85.8563 28.3913 86.2716 28.6915C86.687 28.9918 86.9992 29.4007 87.2082 29.9183C87.4173 30.4359 87.4769 30.9477 87.387 31.4535C87.2972 31.9594 87.0661 32.4227 86.6937 32.8434C86.3213 33.2642 85.8154 33.6047 85.176 33.8649ZM84.8888 33.1537C85.4137 32.94 85.8213 32.6718 86.1114 32.3489C86.4023 32.028 86.5803 31.6807 86.6453 31.3069C86.7112 30.935 86.6699 30.5653 86.5215 30.1979C86.3731 29.8304 86.1459 29.5352 85.8399 29.3124C85.5347 29.0916 85.1661 28.9668 84.7339 28.9379C84.3026 28.9111 83.8244 29.0045 83.2995 29.2182C82.7745 29.4319 82.3666 29.6991 82.0757 30.02C81.7855 30.3428 81.6076 30.6902 81.5417 31.0621C81.4767 31.4359 81.5184 31.8065 81.6668 32.174C81.8152 32.5415 82.042 32.8356 82.3472 33.0565C82.6531 33.2793 83.0218 33.4041 83.4532 33.431C83.8853 33.4598 84.3639 33.3674 84.8888 33.1537Z" fill="#E5DAC8"/>
<path d="M82.4806 36.4868L88.863 35.0349L89.0375 35.8081L83.3407 37.104L84.0106 40.072L83.3249 40.2279L82.4806 36.4868Z" fill="#E5DAC8"/>
<path d="M83.5383 41.8276L90.0641 41.3212L90.1249 42.1114L84.3001 42.5635L84.5337 45.5971L83.8327 45.6515L83.5383 41.8276Z" fill="#E5DAC8"/>
</svg>
